<svg xmlns="http://www.w3.org/2000/svg" xmlns:xlink="http://www.w3.org/1999/xlink" width="500" zoomAndPan="magnify" viewBox="0 0 375 374.999991" height="500" preserveAspectRatio="xMidYMid meet" version="1.0"><defs><filter x="0%" y="0%" width="100%" height="100%" id="0c888fb67f"><feColorMatrix values="0 0 0 0 1 0 0 0 0 1 0 0 0 0 1 0 0 0 1 0" color-interpolation-filters="sRGB"/></filter><g/><clipPath id="05e4087359"><path d="M 81.140625 81.140625 L 293.859375 81.140625 L 293.859375 293.859375 L 81.140625 293.859375 Z M 81.140625 81.140625 " clip-rule="nonzero"/></clipPath><clipPath id="bba57e7f0f"><path d="M 187.5 81.140625 C 128.757812 81.140625 81.140625 128.757812 81.140625 187.5 C 81.140625 246.238281 128.757812 293.859375 187.5 293.859375 C 246.238281 293.859375 293.859375 246.238281 293.859375 187.5 C 293.859375 128.757812 246.238281 81.140625 187.5 81.140625 Z M 187.5 81.140625 " clip-rule="nonzero"/></clipPath><clipPath id="ee58605450"><path d="M 37.5 187.5 L 337.5 187.5 L 337.5 253.949219 L 37.5 253.949219 Z M 37.5 187.5 " clip-rule="nonzero"/></clipPath><clipPath id="d7b76c25be"><path d="M 156.753906 104.410156 L 218.253906 104.410156 L 218.253906 165.910156 L 156.753906 165.910156 Z M 156.753906 104.410156 " clip-rule="nonzero"/></clipPath><mask id="926fb9a5ab"><g filter="url(#0c888fb67f)"><rect x="-37.5" width="450" fill="#000000" y="-37.499999" height="449.999989" fill-opacity="0.7"/></g></mask><clipPath id="6915425049"><path d="M 0.160156 0.839844 L 58.960938 0.839844 L 58.960938 59.640625 L 0.160156 59.640625 Z M 0.160156 0.839844 " clip-rule="nonzero"/></clipPath><clipPath id="72da2aa5f5"><rect x="0" width="59" y="0" height="60"/></clipPath><mask id="57ed977d3e"><g filter="url(#0c888fb67f)"><rect x="-37.5" width="450" fill="#000000" y="-37.499999" height="449.999989" fill-opacity="0.8"/></g></mask><clipPath id="4b4a9ba14f"><path d="M 0.519531 0.71875 L 5 0.71875 L 5 5.761719 L 0.519531 5.761719 Z M 0.519531 0.71875 " clip-rule="nonzero"/></clipPath><clipPath id="1e59b5b640"><rect x="0" width="6" y="0" height="6"/></clipPath></defs><rect x="-37.5" width="450" fill="#ffffff" y="-37.499999" height="449.999989" fill-opacity="1"/><rect x="-37.5" width="450" fill="#ffffff" y="-37.499999" height="449.999989" fill-opacity="1"/><g clip-path="url(#05e4087359)"><g clip-path="url(#bba57e7f0f)"><path stroke-linecap="butt" transform="matrix(0.75, 0, 0, 0.75, 81.13905, 81.139046)" fill="none" stroke-linejoin="miter" d="M 141.814609 0.0021055 C 63.491687 0.0021055 0.0020995 63.491693 0.0020995 141.814615 C 0.0020995 220.132328 63.491687 283.627124 141.814609 283.627124 C 220.132322 283.627124 283.627118 220.132328 283.627118 141.814615 C 283.627118 63.491693 220.132322 0.0021055 141.814609 0.0021055 Z M 141.814609 0.0021055 " stroke="#8c4830" stroke-width="8" stroke-opacity="1" stroke-miterlimit="4"/></g></g><g clip-path="url(#ee58605450)"><path fill="#ffffff" d="M 37.5 187.5 L 337.558594 187.5 L 337.558594 253.949219 L 37.5 253.949219 Z M 37.5 187.5 " fill-opacity="1" fill-rule="nonzero"/></g><g clip-path="url(#d7b76c25be)"><path fill="#667339" d="M 191.980469 149.222656 C 192.105469 150.390625 191.957031 151.546875 191.773438 152.703125 C 191.601562 153.773438 191.417969 154.847656 191.207031 155.917969 C 190.835938 157.789062 190.40625 159.632812 189.902344 161.46875 C 189.65625 162.367188 189.398438 163.265625 189.113281 164.164062 C 188.992188 164.570312 188.867188 164.988281 188.648438 165.34375 C 188.488281 165.589844 188.253906 165.859375 187.945312 165.886719 C 187.894531 165.898438 187.835938 165.898438 187.785156 165.859375 C 187.824219 165.886719 187.722656 165.847656 187.722656 165.847656 C 187.699219 165.835938 187.675781 165.824219 187.664062 165.824219 C 187.601562 165.789062 187.550781 165.75 187.503906 165.699219 C 187.429688 165.613281 187.367188 165.515625 187.316406 165.417969 C 187.269531 165.320312 187.207031 165.207031 187.207031 165.097656 C 187.195312 165.074219 187.183594 165.046875 187.183594 165.035156 C 187.15625 164.976562 187.132812 164.925781 187.109375 164.863281 C 187.023438 164.644531 186.9375 164.421875 186.851562 164.199219 C 186.691406 163.78125 186.554688 163.351562 186.40625 162.933594 C 186.097656 161.984375 185.828125 161.023438 185.570312 160.0625 C 185.054688 158.167969 184.597656 156.261719 184.09375 154.367188 C 183.808594 153.269531 183.515625 152.175781 183.476562 151.03125 C 183.441406 149.847656 183.636719 148.667969 183.847656 147.511719 C 184.191406 145.503906 184.683594 143.546875 185.273438 141.601562 C 185.570312 140.628906 185.890625 139.660156 186.199219 138.6875 C 186.359375 138.179688 186.492188 137.652344 186.726562 137.171875 C 186.886719 136.851562 187.15625 136.421875 187.550781 136.398438 C 187.601562 136.371094 187.664062 136.382812 187.710938 136.421875 C 187.6875 136.398438 187.785156 136.433594 187.796875 136.445312 C 187.824219 136.457031 187.859375 136.472656 187.882812 136.496094 C 187.933594 136.53125 187.980469 136.570312 188.019531 136.617188 C 188.105469 136.71875 188.167969 136.828125 188.214844 136.949219 C 188.242188 137.023438 188.277344 137.085938 188.289062 137.160156 C 188.289062 137.171875 188.289062 137.171875 188.289062 137.183594 C 188.363281 137.320312 188.414062 137.46875 188.476562 137.617188 C 188.707031 138.195312 188.917969 138.785156 189.140625 139.363281 C 189.925781 141.515625 190.617188 143.695312 191.230469 145.898438 C 191.539062 146.992188 191.859375 148.089844 191.980469 149.222656 Z M 218.222656 135.4375 C 218.199219 135.792969 217.839844 136.050781 217.546875 136.210938 C 217.113281 136.445312 216.621094 136.570312 216.152344 136.703125 C 214.34375 137.257812 212.523438 137.738281 210.675781 138.15625 C 208.808594 138.585938 206.921875 138.945312 205.039062 139.238281 C 203.75 139.449219 202.457031 139.585938 201.152344 139.386719 C 200.03125 139.214844 198.921875 138.894531 197.828125 138.574219 C 196.722656 138.269531 195.625 137.921875 194.53125 137.578125 C 193.445312 137.222656 192.375 136.851562 191.304688 136.457031 C 191.058594 136.371094 190.8125 136.273438 190.566406 136.1875 C 190.925781 136.371094 191.269531 136.558594 191.625 136.730469 C 192.476562 137.171875 193.335938 137.617188 194.183594 138.070312 C 195.910156 139.007812 197.582031 140.027344 199.183594 141.171875 C 200.054688 141.800781 200.929688 142.425781 201.667969 143.214844 C 202.40625 143.992188 202.960938 144.914062 203.488281 145.835938 C 204.449219 147.5 205.445312 149.121094 206.40625 150.785156 C 206.898438 151.632812 207.378906 152.496094 207.835938 153.355469 C 208.042969 153.75 208.242188 154.15625 208.4375 154.5625 C 208.632812 154.96875 208.832031 155.386719 208.992188 155.816406 C 209.089844 155.929688 209.140625 156.089844 209.175781 156.222656 C 209.199219 156.335938 209.210938 156.445312 209.199219 156.570312 C 209.1875 156.605469 209.1875 156.644531 209.164062 156.691406 C 209.152344 156.714844 209.152344 156.742188 209.125 156.765625 C 209.113281 156.789062 209.113281 156.789062 209.113281 156.765625 C 209.101562 156.828125 209.066406 156.863281 209.015625 156.890625 C 208.734375 157.136719 208.265625 157.050781 207.945312 156.949219 C 207.476562 156.800781 207.046875 156.542969 206.617188 156.308594 C 204.953125 155.425781 203.328125 154.476562 201.742188 153.480469 C 200.128906 152.457031 198.542969 151.386719 196.992188 150.265625 C 196.070312 149.589844 195.144531 148.890625 194.417969 147.992188 C 193.765625 147.191406 193.261719 146.304688 192.757812 145.40625 C 192.214844 144.457031 191.699219 143.511719 191.195312 142.539062 C 190.703125 141.589844 190.222656 140.644531 189.765625 139.683594 C 189.53125 139.203125 189.3125 138.710938 189.089844 138.230469 C 188.878906 137.761719 188.648438 137.296875 188.476562 136.816406 C 188.375 136.703125 188.328125 136.542969 188.289062 136.410156 C 188.265625 136.296875 188.253906 136.1875 188.265625 136.066406 C 188.277344 136.027344 188.277344 135.992188 188.300781 135.941406 C 188.316406 135.917969 188.316406 135.890625 188.339844 135.867188 C 188.351562 135.84375 188.351562 135.84375 188.351562 135.867188 C 188.363281 135.804688 188.402344 135.769531 188.449219 135.746094 C 188.574219 135.632812 188.746094 135.585938 188.917969 135.585938 C 188.992188 135.585938 189.054688 135.585938 189.113281 135.597656 C 189.039062 135.546875 188.953125 135.511719 188.894531 135.4375 C 188.855469 135.398438 188.820312 135.351562 188.78125 135.300781 C 188.769531 135.277344 188.757812 135.238281 188.746094 135.214844 C 188.746094 135.214844 188.722656 135.140625 188.746094 135.179688 C 188.707031 135.128906 188.707031 135.066406 188.722656 135.019531 C 188.734375 134.847656 188.820312 134.699219 188.929688 134.585938 C 189.027344 134.476562 189.152344 134.390625 189.273438 134.316406 C 189.199219 134.339844 189.140625 134.367188 189.066406 134.378906 C 188.953125 134.402344 188.84375 134.414062 188.722656 134.402344 C 188.683594 134.390625 188.648438 134.390625 188.597656 134.367188 C 188.574219 134.355469 188.546875 134.355469 188.523438 134.328125 C 188.5 134.316406 188.5 134.316406 188.523438 134.316406 C 188.460938 134.304688 188.425781 134.269531 188.402344 134.21875 C 188.289062 134.09375 188.242188 133.921875 188.242188 133.75 C 188.230469 133.28125 188.449219 132.828125 188.660156 132.433594 C 188.90625 131.964844 189.140625 131.511719 189.375 131.042969 C 189.816406 130.195312 190.257812 129.332031 190.714844 128.484375 C 191.648438 126.761719 192.671875 125.085938 193.816406 123.484375 C 194.445312 122.613281 195.070312 121.738281 195.859375 121 C 196.632812 120.261719 197.558594 119.707031 198.480469 119.179688 C 200.140625 118.21875 201.765625 117.222656 203.429688 116.261719 C 204.277344 115.769531 205.140625 115.289062 206 114.835938 C 206.394531 114.625 206.800781 114.429688 207.207031 114.230469 C 207.613281 114.035156 208.03125 113.835938 208.460938 113.675781 C 208.574219 113.578125 208.734375 113.53125 208.867188 113.492188 C 208.980469 113.46875 209.089844 113.457031 209.210938 113.46875 C 209.25 113.480469 209.285156 113.480469 209.335938 113.503906 C 209.359375 113.515625 209.386719 113.515625 209.410156 113.542969 C 209.433594 113.554688 209.433594 113.554688 209.410156 113.554688 C 209.472656 113.566406 209.507812 113.601562 209.53125 113.652344 C 209.777344 113.9375 209.691406 114.402344 209.59375 114.722656 C 209.445312 115.191406 209.1875 115.621094 208.953125 116.050781 C 208.066406 117.714844 207.121094 119.339844 206.125 120.925781 C 205.101562 122.539062 204.03125 124.125 202.910156 125.675781 C 202.234375 126.601562 201.53125 127.523438 200.632812 128.25 C 199.835938 128.902344 198.949219 129.40625 198.050781 129.910156 C 197.101562 130.453125 196.15625 130.96875 195.183594 131.472656 C 194.234375 131.964844 193.285156 132.445312 192.328125 132.902344 C 191.847656 133.136719 191.355469 133.355469 190.875 133.578125 C 190.554688 133.726562 190.234375 133.875 189.902344 134.007812 C 190 133.972656 190.085938 133.949219 190.183594 133.921875 C 190.703125 133.761719 191.207031 133.589844 191.722656 133.429688 C 192.683594 133.125 193.644531 132.816406 194.605469 132.53125 C 196.597656 131.953125 198.617188 131.484375 200.671875 131.167969 C 201.851562 130.980469 203.035156 130.859375 204.226562 131.019531 C 205.273438 131.152344 206.296875 131.460938 207.304688 131.730469 C 209.238281 132.226562 211.167969 132.703125 213.078125 133.234375 C 214 133.492188 214.9375 133.773438 215.847656 134.082031 C 216.277344 134.230469 216.707031 134.390625 217.140625 134.5625 C 217.210938 134.585938 217.300781 134.613281 217.359375 134.660156 C 217.371094 134.675781 217.398438 134.675781 217.410156 134.675781 C 217.410156 134.675781 217.410156 134.675781 217.421875 134.675781 C 217.519531 134.675781 217.617188 134.734375 217.703125 134.773438 C 217.816406 134.820312 217.925781 134.894531 218.023438 134.980469 C 218.0625 135.019531 218.097656 135.066406 218.136719 135.117188 C 218.148438 135.140625 218.160156 135.179688 218.171875 135.203125 C 218.171875 135.203125 218.199219 135.277344 218.171875 135.238281 C 218.234375 135.324219 218.234375 135.386719 218.222656 135.4375 Z M 189.519531 134.207031 C 189.507812 134.207031 189.496094 134.21875 189.484375 134.21875 C 189.484375 134.21875 189.472656 134.230469 189.472656 134.230469 C 189.484375 134.21875 189.496094 134.207031 189.519531 134.207031 Z M 169.953125 139.179688 C 171.109375 139.363281 172.265625 139.511719 173.433594 139.386719 C 174.566406 139.265625 175.664062 138.945312 176.757812 138.636719 C 178.960938 138.019531 181.140625 137.332031 183.292969 136.542969 C 183.882812 136.335938 184.460938 136.113281 185.039062 135.878906 C 185.1875 135.820312 185.335938 135.769531 185.472656 135.695312 C 185.484375 135.695312 185.496094 135.695312 185.496094 135.695312 C 185.570312 135.683594 185.644531 135.660156 185.707031 135.621094 C 185.828125 135.574219 185.9375 135.511719 186.039062 135.425781 C 186.085938 135.386719 186.125 135.339844 186.160156 135.289062 C 186.183594 135.265625 186.199219 135.238281 186.210938 135.203125 C 186.210938 135.191406 186.246094 135.09375 186.234375 135.117188 C 186.273438 135.066406 186.273438 135.007812 186.257812 134.957031 C 186.234375 134.5625 185.804688 134.292969 185.484375 134.132812 C 185.003906 133.898438 184.476562 133.777344 183.96875 133.601562 C 182.996094 133.296875 182.027344 132.976562 181.054688 132.679688 C 179.109375 132.089844 177.140625 131.597656 175.144531 131.253906 C 173.988281 131.054688 172.808594 130.847656 171.625 130.882812 C 170.492188 130.921875 169.386719 131.214844 168.289062 131.5 C 166.394531 132.003906 164.488281 132.457031 162.59375 132.976562 C 161.632812 133.234375 160.671875 133.515625 159.722656 133.8125 C 159.292969 133.949219 158.875 134.09375 158.457031 134.253906 C 158.234375 134.339844 158.011719 134.425781 157.792969 134.515625 C 157.730469 134.539062 157.679688 134.5625 157.621094 134.585938 C 157.609375 134.585938 157.582031 134.601562 157.558594 134.613281 C 157.449219 134.613281 157.335938 134.675781 157.238281 134.722656 C 157.140625 134.773438 157.042969 134.832031 156.957031 134.90625 C 156.90625 134.957031 156.867188 135.007812 156.832031 135.066406 C 156.820312 135.09375 156.808594 135.117188 156.808594 135.128906 C 156.808594 135.140625 156.769531 135.226562 156.796875 135.191406 C 156.757812 135.238281 156.757812 135.300781 156.769531 135.351562 C 156.796875 135.660156 157.066406 135.890625 157.3125 136.050781 C 157.667969 136.285156 158.085938 136.398438 158.492188 136.519531 C 159.390625 136.789062 160.289062 137.0625 161.1875 137.308594 C 163.023438 137.800781 164.882812 138.242188 166.738281 138.613281 C 167.796875 138.820312 168.867188 139.007812 169.953125 139.179688 Z M 185.9375 138.574219 C 186.183594 138.046875 186.445312 137.515625 186.640625 136.976562 C 186.738281 136.863281 186.789062 136.703125 186.824219 136.570312 C 186.851562 136.472656 186.863281 136.359375 186.851562 136.261719 C 186.851562 136.210938 186.835938 136.175781 186.824219 136.125 C 186.8125 136.101562 186.800781 136.078125 186.789062 136.050781 C 186.777344 136.039062 186.765625 135.992188 186.777344 136.039062 C 186.765625 135.976562 186.726562 135.941406 186.679688 135.917969 C 186.382812 135.660156 185.878906 135.769531 185.546875 135.878906 C 185.066406 136.039062 184.621094 136.3125 184.179688 136.542969 C 183.304688 137 182.417969 137.441406 181.546875 137.910156 C 179.835938 138.820312 178.160156 139.792969 176.574219 140.902344 C 175.6875 141.515625 174.800781 142.132812 174 142.859375 C 173.1875 143.585938 172.5625 144.457031 172.007812 145.382812 C 171.527344 146.179688 171.058594 146.992188 170.59375 147.792969 C 170.085938 148.644531 169.582031 149.480469 169.089844 150.328125 C 168.144531 151.953125 167.195312 153.601562 166.417969 155.324219 C 166.320312 155.546875 166.222656 155.757812 166.148438 155.976562 C 166.050781 156.089844 166 156.25 165.964844 156.382812 C 165.941406 156.484375 165.925781 156.59375 165.941406 156.691406 C 165.941406 156.742188 165.953125 156.777344 165.964844 156.828125 C 165.976562 156.851562 165.988281 156.875 166 156.902344 C 166.011719 156.914062 166.027344 156.960938 166.011719 156.914062 C 166.027344 156.976562 166.0625 157.011719 166.113281 157.035156 C 166.359375 157.257812 166.753906 157.207031 167.046875 157.136719 C 167.464844 157.023438 167.835938 156.816406 168.203125 156.617188 C 169.027344 156.175781 169.851562 155.730469 170.664062 155.265625 C 172.300781 154.316406 173.914062 153.320312 175.476562 152.273438 C 176.375 151.671875 177.25 151.054688 178.125 150.425781 C 178.949219 149.824219 179.773438 149.210938 180.449219 148.445312 C 181.128906 147.683594 181.65625 146.808594 182.160156 145.921875 C 183.242188 144.050781 184.253906 142.144531 185.1875 140.210938 C 185.433594 139.671875 185.691406 139.117188 185.9375 138.574219 Z M 165.988281 115.632812 C 166.433594 116.457031 166.875 117.285156 167.34375 118.09375 C 168.289062 119.734375 169.289062 121.34375 170.332031 122.90625 C 170.9375 123.804688 171.550781 124.679688 172.179688 125.554688 C 172.78125 126.378906 173.398438 127.203125 174.160156 127.878906 C 174.925781 128.558594 175.796875 129.085938 176.683594 129.589844 C 178.554688 130.675781 180.460938 131.683594 182.394531 132.617188 C 182.9375 132.875 183.476562 133.136719 184.03125 133.382812 C 184.5625 133.628906 185.089844 133.886719 185.632812 134.082031 C 185.742188 134.179688 185.902344 134.230469 186.039062 134.269531 C 186.136719 134.292969 186.246094 134.304688 186.34375 134.292969 C 186.394531 134.292969 186.433594 134.28125 186.480469 134.269531 C 186.503906 134.253906 186.53125 134.242188 186.554688 134.230469 C 186.566406 134.21875 186.617188 134.207031 186.566406 134.21875 C 186.628906 134.207031 186.664062 134.167969 186.691406 134.121094 C 186.863281 133.921875 186.875 133.628906 186.824219 133.355469 C 186.910156 133.492188 186.996094 133.617188 187.109375 133.726562 C 187.230469 133.835938 187.378906 133.921875 187.539062 133.933594 C 187.589844 133.960938 187.648438 133.949219 187.699219 133.910156 C 187.675781 133.933594 187.734375 133.910156 187.734375 133.910156 C 187.761719 133.898438 187.796875 133.886719 187.824219 133.875 C 187.871094 133.847656 187.921875 133.8125 187.957031 133.761719 C 188.042969 133.675781 188.105469 133.578125 188.15625 133.46875 C 188.203125 133.371094 188.253906 133.269531 188.265625 133.160156 C 188.265625 133.148438 188.265625 133.148438 188.265625 133.136719 C 188.316406 133.085938 188.339844 132.976562 188.363281 132.914062 C 188.574219 132.398438 188.769531 131.878906 188.96875 131.351562 C 189.359375 130.28125 189.730469 129.210938 190.085938 128.125 C 190.445312 127.03125 190.777344 125.933594 191.082031 124.828125 C 191.390625 123.734375 191.722656 122.636719 191.894531 121.503906 C 192.09375 120.199219 191.945312 118.90625 191.75 117.617188 C 191.453125 115.71875 191.082031 113.835938 190.664062 111.980469 C 190.246094 110.132812 189.753906 108.3125 189.214844 106.503906 C 189.066406 106.035156 188.953125 105.542969 188.722656 105.109375 C 188.5625 104.816406 188.300781 104.457031 187.945312 104.433594 C 187.894531 104.410156 187.835938 104.421875 187.785156 104.457031 C 187.808594 104.433594 187.75 104.457031 187.75 104.457031 C 187.722656 104.472656 187.6875 104.484375 187.664062 104.496094 C 187.613281 104.519531 187.5625 104.558594 187.527344 104.605469 C 187.441406 104.691406 187.367188 104.804688 187.316406 104.925781 C 187.28125 105.011719 187.21875 105.109375 187.21875 105.210938 C 187.21875 105.210938 187.21875 105.210938 187.21875 105.222656 C 187.21875 105.234375 187.207031 105.257812 187.207031 105.269531 C 187.171875 105.332031 187.144531 105.417969 187.109375 105.492188 C 186.9375 105.910156 186.777344 106.34375 186.628906 106.785156 C 186.320312 107.695312 186.039062 108.617188 185.78125 109.554688 C 185.238281 111.472656 184.769531 113.40625 184.277344 115.328125 C 184.019531 116.347656 183.710938 117.355469 183.5625 118.402344 C 183.402344 119.597656 183.527344 120.777344 183.710938 121.960938 C 184.03125 124.015625 184.488281 126.035156 185.078125 128.027344 C 185.359375 129 185.667969 129.949219 185.976562 130.90625 C 186.113281 131.339844 186.246094 131.769531 186.382812 132.199219 C 186.285156 132.003906 186.171875 131.820312 186.074219 131.621094 C 185.621094 130.746094 185.175781 129.863281 184.707031 128.988281 C 183.796875 127.277344 182.824219 125.601562 181.71875 124.015625 C 181.101562 123.128906 180.488281 122.242188 179.761719 121.441406 C 179.035156 120.632812 178.160156 120.003906 177.238281 119.449219 C 176.4375 118.96875 175.625 118.5 174.824219 118.035156 C 173.976562 117.53125 173.140625 117.023438 172.289062 116.53125 C 170.664062 115.558594 169.015625 114.625 167.292969 113.847656 C 167.070312 113.75 166.863281 113.652344 166.640625 113.578125 C 166.53125 113.480469 166.371094 113.429688 166.234375 113.394531 C 166.136719 113.371094 166.027344 113.355469 165.925781 113.371094 C 165.878906 113.371094 165.839844 113.382812 165.792969 113.394531 C 165.765625 113.40625 165.742188 113.417969 165.71875 113.429688 C 165.707031 113.445312 165.65625 113.457031 165.707031 113.445312 C 165.644531 113.457031 165.605469 113.492188 165.582031 113.542969 C 165.359375 113.789062 165.410156 114.183594 165.484375 114.476562 C 165.582031 114.894531 165.792969 115.265625 165.988281 115.632812 Z M 165.988281 115.632812 " fill-opacity="1" fill-rule="nonzero"/></g><g mask="url(#926fb9a5ab)"><g transform="matrix(1, 0, 0, 1, 158, 105)"><g clip-path="url(#72da2aa5f5)"><g clip-path="url(#6915425049)"><path fill="#3c4024" d="M 27.570312 16.566406 C 27.484375 15.542969 27.421875 14.511719 27.496094 13.488281 C 27.570312 12.566406 27.730469 11.667969 27.867188 10.757812 C 28.125 9.046875 28.359375 7.335938 28.640625 5.625 C 28.777344 4.800781 28.910156 3.976562 29.070312 3.164062 C 29.144531 2.792969 29.21875 2.414062 29.304688 2.042969 C 29.332031 1.933594 29.367188 1.820312 29.390625 1.710938 C 29.402344 1.636719 29.417969 1.550781 29.429688 1.464844 C 29.476562 1.253906 29.5625 1.035156 29.785156 0.960938 C 29.773438 0.972656 29.761719 0.972656 29.761719 0.984375 C 29.785156 0.972656 29.824219 0.960938 29.859375 0.960938 C 29.859375 0.960938 29.859375 0.960938 29.847656 0.949219 C 30.179688 0.9375 30.316406 1.402344 30.386719 1.636719 C 30.511719 2.054688 30.574219 2.5 30.648438 2.929688 C 31.214844 6.203125 31.644531 9.515625 31.953125 12.824219 C 32.050781 13.945312 32.125 15.078125 32.027344 16.210938 C 31.9375 17.195312 31.777344 18.167969 31.621094 19.152344 C 31.460938 20.125 31.285156 21.109375 31.113281 22.082031 C 30.929688 23.039062 30.746094 24.011719 30.535156 24.972656 C 30.4375 25.441406 30.339844 25.90625 30.230469 26.375 C 30.203125 26.460938 30.167969 26.574219 30.15625 26.660156 C 30.140625 26.746094 30.128906 26.820312 30.117188 26.90625 C 30.070312 27.113281 29.980469 27.347656 29.761719 27.410156 C 29.773438 27.398438 29.785156 27.398438 29.785156 27.382812 C 29.761719 27.398438 29.722656 27.410156 29.6875 27.410156 C 29.6875 27.410156 29.6875 27.410156 29.699219 27.421875 C 29.539062 27.433594 29.429688 27.3125 29.34375 27.1875 C 29.121094 26.832031 29.058594 26.363281 28.984375 25.957031 C 28.898438 25.5 28.8125 25.035156 28.726562 24.578125 C 28.566406 23.730469 28.417969 22.878906 28.273438 22.03125 C 27.964844 20.210938 27.730469 18.386719 27.570312 16.566406 Z M 31.667969 41.550781 C 31.359375 39.59375 31.003906 37.648438 30.597656 35.71875 C 30.488281 35.1875 30.375 34.660156 30.253906 34.128906 C 30.230469 34.007812 30.191406 33.871094 30.167969 33.746094 C 30.140625 33.660156 30.140625 33.601562 30.117188 33.515625 C 30.070312 33.28125 29.996094 32.996094 29.734375 32.910156 C 29.75 32.921875 29.761719 32.921875 29.761719 32.933594 C 29.734375 32.921875 29.699219 32.910156 29.664062 32.910156 C 29.664062 32.910156 29.664062 32.910156 29.675781 32.898438 C 29.316406 32.875 29.171875 33.441406 29.097656 33.699219 C 28.972656 34.152344 28.910156 34.621094 28.824219 35.089844 C 28.664062 35.949219 28.503906 36.8125 28.359375 37.6875 C 28.050781 39.445312 27.792969 41.21875 27.621094 43.003906 C 27.519531 44.023438 27.421875 45.046875 27.433594 46.078125 C 27.460938 47.0625 27.605469 48.035156 27.753906 49.007812 C 28.011719 50.695312 28.246094 52.382812 28.503906 54.066406 C 28.640625 54.902344 28.777344 55.753906 28.9375 56.589844 C 29.011719 56.972656 29.082031 57.367188 29.15625 57.746094 C 29.195312 57.933594 29.242188 58.128906 29.28125 58.3125 C 29.304688 58.410156 29.34375 58.523438 29.355469 58.621094 C 29.367188 58.695312 29.378906 58.792969 29.402344 58.867188 C 29.453125 59.078125 29.539062 59.296875 29.761719 59.371094 C 29.75 59.359375 29.734375 59.359375 29.734375 59.347656 C 29.761719 59.359375 29.796875 59.371094 29.835938 59.371094 C 29.835938 59.371094 29.835938 59.371094 29.824219 59.382812 C 30.117188 59.394531 30.253906 59.027344 30.328125 58.804688 C 30.449219 58.449219 30.511719 58.066406 30.574219 57.6875 C 30.707031 56.898438 30.84375 56.097656 30.96875 55.296875 C 31.226562 53.648438 31.445312 52.011719 31.632812 50.351562 C 31.742188 49.402344 31.839844 48.457031 31.925781 47.496094 C 32.011719 46.5 32.085938 45.5 32.039062 44.492188 C 31.988281 43.507812 31.828125 42.523438 31.667969 41.550781 Z M 58.695312 30.324219 C 58.695312 30.289062 58.683594 30.265625 58.671875 30.226562 C 58.683594 30.238281 58.683594 30.253906 58.695312 30.253906 C 58.621094 30.03125 58.402344 29.945312 58.191406 29.894531 C 58.105469 29.871094 58.019531 29.859375 57.945312 29.859375 C 57.835938 29.847656 57.722656 29.796875 57.613281 29.773438 C 57.242188 29.6875 56.875 29.613281 56.492188 29.539062 C 55.679688 29.378906 54.855469 29.242188 54.03125 29.109375 C 52.320312 28.835938 50.609375 28.589844 48.898438 28.332031 C 47.988281 28.195312 47.078125 28.035156 46.167969 27.964844 C 45.144531 27.875 44.113281 27.9375 43.089844 28.035156 C 41.269531 28.195312 39.445312 28.429688 37.636719 28.738281 C 36.789062 28.886719 35.9375 29.035156 35.089844 29.195312 C 34.632812 29.28125 34.167969 29.367188 33.710938 29.453125 C 33.304688 29.527344 32.835938 29.585938 32.480469 29.808594 C 32.359375 29.882812 32.234375 30.007812 32.246094 30.167969 C 32.246094 30.167969 32.246094 30.167969 32.257812 30.152344 C 32.257812 30.191406 32.273438 30.214844 32.285156 30.253906 C 32.273438 30.238281 32.273438 30.226562 32.257812 30.226562 C 32.332031 30.449219 32.554688 30.535156 32.765625 30.585938 C 32.851562 30.609375 32.925781 30.609375 33.011719 30.621094 C 33.097656 30.632812 33.207031 30.671875 33.292969 30.695312 C 33.761719 30.804688 34.226562 30.90625 34.695312 31.003906 C 35.65625 31.210938 36.617188 31.398438 37.589844 31.582031 C 38.5625 31.765625 39.53125 31.9375 40.519531 32.085938 C 41.488281 32.246094 42.472656 32.40625 43.460938 32.492188 C 44.589844 32.589844 45.710938 32.515625 46.84375 32.417969 C 50.15625 32.109375 53.453125 31.691406 56.738281 31.113281 C 57.167969 31.039062 57.613281 30.976562 58.03125 30.855469 C 58.253906 30.78125 58.71875 30.644531 58.695312 30.324219 C 58.695312 30.3125 58.695312 30.3125 58.695312 30.324219 Z M 12.160156 32.332031 C 13.15625 32.417969 14.15625 32.492188 15.164062 32.441406 C 16.148438 32.382812 17.121094 32.222656 18.105469 32.074219 C 20.0625 31.765625 22.007812 31.410156 23.9375 31.003906 C 24.46875 30.890625 24.996094 30.78125 25.527344 30.660156 C 25.648438 30.632812 25.785156 30.597656 25.910156 30.574219 C 25.996094 30.546875 26.054688 30.546875 26.140625 30.523438 C 26.375 30.472656 26.660156 30.398438 26.746094 30.140625 C 26.734375 30.152344 26.734375 30.167969 26.722656 30.167969 C 26.734375 30.140625 26.746094 30.105469 26.746094 30.066406 C 26.746094 30.066406 26.746094 30.066406 26.757812 30.078125 C 26.78125 29.722656 26.214844 29.574219 25.957031 29.5 C 25.503906 29.378906 25.035156 29.316406 24.566406 29.230469 C 23.707031 29.070312 22.84375 28.910156 21.96875 28.761719 C 20.210938 28.457031 18.4375 28.195312 16.652344 28.023438 C 15.632812 27.925781 14.609375 27.828125 13.578125 27.839844 C 12.59375 27.863281 11.621094 28.011719 10.648438 28.160156 C 8.960938 28.417969 7.273438 28.652344 5.589844 28.910156 C 4.753906 29.046875 3.902344 29.179688 3.066406 29.339844 C 2.683594 29.414062 2.289062 29.488281 1.910156 29.5625 C 1.722656 29.601562 1.527344 29.648438 1.34375 29.6875 C 1.246094 29.710938 1.132812 29.746094 1.035156 29.761719 C 0.960938 29.773438 0.863281 29.785156 0.789062 29.808594 C 0.578125 29.859375 0.359375 29.945312 0.285156 30.167969 C 0.296875 30.152344 0.296875 30.140625 0.308594 30.140625 C 0.296875 30.167969 0.285156 30.203125 0.285156 30.238281 C 0.285156 30.238281 0.285156 30.238281 0.273438 30.226562 C 0.261719 30.523438 0.628906 30.660156 0.851562 30.730469 C 1.207031 30.855469 1.589844 30.917969 1.96875 30.976562 C 2.757812 31.113281 3.558594 31.25 4.359375 31.371094 C 6.007812 31.628906 7.644531 31.851562 9.304688 32.035156 C 10.253906 32.148438 11.214844 32.246094 12.160156 32.332031 Z M 31.558594 28.246094 C 31.582031 28.28125 31.621094 28.320312 31.679688 28.320312 C 31.867188 28.382812 32.074219 28.28125 32.234375 28.183594 C 32.308594 28.136719 32.371094 28.085938 32.445312 28.035156 C 32.417969 28.0625 32.480469 28.023438 32.492188 28.011719 C 32.519531 28 32.542969 27.976562 32.578125 27.964844 C 32.628906 27.925781 32.691406 27.902344 32.738281 27.863281 C 33.15625 27.605469 33.5625 27.335938 33.980469 27.066406 C 34.808594 26.523438 35.632812 25.980469 36.445312 25.414062 C 37.28125 24.835938 38.105469 24.257812 38.929688 23.667969 C 39.71875 23.101562 40.519531 22.523438 41.257812 21.894531 C 42.082031 21.183594 42.808594 20.355469 43.496094 19.519531 C 44.578125 18.226562 45.625 16.910156 46.648438 15.582031 C 47.644531 14.277344 48.617188 12.960938 49.5625 11.617188 C 49.808594 11.273438 50.066406 10.929688 50.277344 10.546875 C 50.402344 10.328125 50.648438 9.882812 50.425781 9.648438 C 50.402344 9.613281 50.363281 9.574219 50.300781 9.574219 C 50.105469 9.5 49.882812 9.625 49.722656 9.722656 C 49.675781 9.746094 49.625 9.773438 49.589844 9.808594 C 49.574219 9.820312 49.539062 9.847656 49.550781 9.847656 C 49.453125 9.921875 49.328125 9.980469 49.230469 10.042969 C 48.910156 10.253906 48.589844 10.460938 48.269531 10.671875 C 47.570312 11.140625 46.894531 11.632812 46.203125 12.125 C 44.800781 13.144531 43.410156 14.179688 42.019531 15.210938 C 41.28125 15.753906 40.53125 16.285156 39.839844 16.886719 C 39.078125 17.539062 38.414062 18.289062 37.773438 19.050781 C 36.589844 20.457031 35.472656 21.90625 34.414062 23.398438 C 33.921875 24.097656 33.429688 24.800781 32.9375 25.515625 C 32.664062 25.894531 32.40625 26.289062 32.136719 26.671875 C 31.890625 27.015625 31.605469 27.382812 31.507812 27.804688 C 31.460938 27.964844 31.445312 28.136719 31.558594 28.246094 Z M 27.472656 32.921875 C 27.507812 32.886719 27.535156 32.847656 27.570312 32.800781 C 27.679688 32.628906 27.828125 32.382812 27.742188 32.171875 C 27.730469 32.121094 27.707031 32.085938 27.667969 32.0625 C 27.421875 31.816406 26.917969 32.121094 26.683594 32.257812 C 26.277344 32.492188 25.894531 32.789062 25.515625 33.058594 C 24.789062 33.5625 24.0625 34.054688 23.347656 34.558594 C 21.882812 35.59375 20.445312 36.664062 19.066406 37.808594 C 18.289062 38.4375 17.527344 39.078125 16.839844 39.804688 C 16.160156 40.503906 15.582031 41.292969 15.003906 42.078125 C 13.996094 43.457031 12.960938 44.8125 11.953125 46.203125 C 11.449219 46.890625 10.953125 47.582031 10.460938 48.296875 C 10.242188 48.613281 10.019531 48.949219 9.796875 49.28125 C 9.699219 49.441406 9.589844 49.601562 9.492188 49.757812 C 9.429688 49.859375 9.367188 49.96875 9.304688 50.066406 C 9.28125 50.105469 9.207031 50.203125 9.171875 50.265625 C 9.070312 50.425781 8.972656 50.632812 9.035156 50.816406 C 9.046875 50.867188 9.070312 50.917969 9.109375 50.941406 C 9.304688 51.136719 9.675781 50.964844 9.871094 50.867188 C 10.203125 50.707031 10.511719 50.472656 10.820312 50.265625 C 11.484375 49.796875 12.148438 49.328125 12.800781 48.847656 C 14.144531 47.863281 15.460938 46.855469 16.765625 45.820312 C 17.503906 45.230469 18.242188 44.628906 18.980469 44.023438 C 19.730469 43.398438 20.46875 42.769531 21.121094 42.042969 C 21.761719 41.328125 22.328125 40.542969 22.894531 39.765625 C 24.074219 38.140625 25.21875 36.492188 26.316406 34.804688 C 26.609375 34.351562 26.90625 33.894531 27.199219 33.425781 C 27.273438 33.304688 27.347656 33.195312 27.421875 33.070312 C 27.433594 33.046875 27.445312 33.035156 27.460938 33.007812 C 27.472656 32.933594 27.472656 32.921875 27.472656 32.921875 Z M 49.945312 50.066406 C 49.921875 50.019531 49.894531 49.96875 49.859375 49.933594 C 49.847656 49.917969 49.820312 49.882812 49.820312 49.894531 C 49.75 49.796875 49.6875 49.671875 49.625 49.574219 C 49.414062 49.253906 49.207031 48.933594 48.996094 48.613281 C 48.53125 47.914062 48.039062 47.238281 47.546875 46.546875 C 46.523438 45.144531 45.488281 43.753906 44.457031 42.363281 C 43.914062 41.625 43.386719 40.875 42.78125 40.183594 C 42.128906 39.421875 41.378906 38.757812 40.617188 38.117188 C 39.214844 36.933594 37.761719 35.816406 36.273438 34.757812 C 35.570312 34.265625 34.867188 33.773438 34.15625 33.28125 C 33.773438 33.007812 33.378906 32.75 32.996094 32.480469 C 32.652344 32.234375 32.285156 31.949219 31.867188 31.851562 C 31.730469 31.816406 31.558594 31.804688 31.445312 31.914062 C 31.410156 31.9375 31.375 31.976562 31.375 32.035156 C 31.3125 32.222656 31.410156 32.429688 31.507812 32.589844 C 31.558594 32.664062 31.605469 32.726562 31.65625 32.800781 C 31.632812 32.773438 31.667969 32.835938 31.679688 32.847656 C 31.691406 32.875 31.71875 32.898438 31.730469 32.933594 C 31.765625 32.984375 31.792969 33.046875 31.828125 33.09375 C 32.085938 33.515625 32.359375 33.921875 32.628906 34.339844 C 33.171875 35.164062 33.710938 35.988281 34.277344 36.800781 C 34.855469 37.636719 35.433594 38.460938 36.023438 39.285156 C 36.589844 40.074219 37.171875 40.875 37.796875 41.613281 C 38.511719 42.4375 39.335938 43.164062 40.171875 43.851562 C 41.464844 44.933594 42.78125 45.980469 44.113281 47.003906 C 45.414062 48 46.734375 48.972656 48.074219 49.917969 C 48.417969 50.164062 48.761719 50.425781 49.144531 50.632812 C 49.367188 50.757812 49.808594 51.003906 50.042969 50.78125 C 50.082031 50.757812 50.117188 50.71875 50.117188 50.65625 C 50.167969 50.449219 50.042969 50.238281 49.945312 50.066406 Z M 8.789062 10.3125 C 8.949219 10.644531 9.183594 10.953125 9.390625 11.261719 C 9.859375 11.925781 10.328125 12.589844 10.808594 13.242188 C 11.792969 14.585938 12.800781 15.902344 13.835938 17.207031 C 14.425781 17.945312 15.027344 18.683594 15.632812 19.421875 C 16.257812 20.171875 16.886719 20.910156 17.613281 21.5625 C 18.328125 22.203125 19.113281 22.769531 19.890625 23.335938 C 21.515625 24.515625 23.164062 25.660156 24.851562 26.757812 C 25.304688 27.050781 25.761719 27.347656 26.230469 27.644531 C 26.351562 27.71875 26.460938 27.789062 26.585938 27.863281 C 26.609375 27.875 26.621094 27.890625 26.648438 27.902344 C 26.671875 27.914062 26.671875 27.914062 26.683594 27.914062 C 26.722656 27.949219 26.757812 27.976562 26.808594 28 C 26.980469 28.109375 27.226562 28.257812 27.433594 28.171875 C 27.484375 28.160156 27.519531 28.136719 27.546875 28.097656 C 27.792969 27.851562 27.484375 27.347656 27.347656 27.113281 C 27.113281 26.707031 26.820312 26.328125 26.546875 25.945312 C 26.042969 25.21875 25.550781 24.492188 25.046875 23.777344 C 24.011719 22.3125 22.941406 20.875 21.796875 19.496094 C 21.171875 18.71875 20.53125 17.957031 19.804688 17.269531 C 19.101562 16.589844 18.316406 16.011719 17.527344 15.433594 C 16.148438 14.425781 14.796875 13.390625 13.402344 12.382812 C 12.714844 11.878906 12.027344 11.386719 11.3125 10.894531 C 10.992188 10.671875 10.660156 10.449219 10.328125 10.226562 C 10.167969 10.128906 10.007812 10.019531 9.847656 9.921875 C 9.75 9.859375 9.636719 9.796875 9.539062 9.734375 C 9.503906 9.710938 9.402344 9.636719 9.34375 9.601562 C 9.183594 9.5 8.972656 9.402344 8.789062 9.464844 C 8.738281 9.476562 8.691406 9.5 8.664062 9.539062 C 8.519531 9.746094 8.691406 10.105469 8.789062 10.3125 Z M 8.789062 10.3125 " fill-opacity="1" fill-rule="nonzero"/></g></g></g></g><path fill="#667339" d="M 189.015625 120.703125 C 189.066406 122.488281 188.96875 124.3125 188.648438 126.070312 C 188.546875 126.585938 188.289062 127.585938 187.5625 127.4375 C 187.257812 127.375 187.070312 127.066406 186.960938 126.796875 C 186.824219 126.464844 186.777344 126.09375 186.726562 125.738281 C 186.492188 123.917969 186.433594 122.082031 186.519531 120.25 C 186.554688 119.363281 186.628906 118.476562 186.765625 117.601562 C 186.886719 116.839844 187.082031 116.050781 187.515625 115.386719 C 187.5625 115.3125 187.625 115.289062 187.699219 115.300781 C 187.773438 115.265625 187.859375 115.289062 187.933594 115.339844 C 188.054688 115.4375 188.167969 115.574219 188.242188 115.707031 C 188.425781 116.015625 188.523438 116.386719 188.597656 116.742188 C 188.683594 117.160156 188.746094 117.589844 188.792969 118.023438 C 188.917969 118.90625 188.992188 119.804688 189.015625 120.703125 Z M 188.523438 143.71875 C 188.425781 143.425781 188.277344 143.09375 188.007812 142.933594 C 187.734375 142.773438 187.417969 142.859375 187.21875 143.078125 C 186.996094 143.324219 186.898438 143.671875 186.835938 143.992188 C 186.75 144.410156 186.714844 144.828125 186.679688 145.246094 C 186.628906 145.703125 186.589844 146.15625 186.566406 146.613281 C 186.519531 147.523438 186.492188 148.445312 186.519531 149.367188 C 186.542969 150.265625 186.605469 151.179688 186.703125 152.078125 C 186.800781 152.875 186.9375 153.6875 187.269531 154.425781 C 187.34375 154.585938 187.429688 154.746094 187.539062 154.90625 C 187.589844 154.980469 187.648438 155.003906 187.722656 154.992188 C 187.796875 155.03125 187.882812 155.003906 187.957031 154.957031 C 188.230469 154.734375 188.386719 154.402344 188.5 154.070312 C 188.621094 153.703125 188.683594 153.332031 188.734375 152.949219 C 188.867188 152.050781 188.96875 151.152344 189.015625 150.253906 C 189.113281 148.445312 189.027344 146.636719 188.769531 144.851562 C 188.695312 144.484375 188.648438 144.089844 188.523438 143.71875 Z M 207.34375 135.179688 C 207.34375 135.117188 207.316406 135.042969 207.257812 134.992188 C 206.605469 134.5625 205.816406 134.367188 205.039062 134.242188 C 204.167969 134.109375 203.28125 134.035156 202.394531 133.996094 C 200.5625 133.910156 198.726562 133.984375 196.90625 134.207031 C 196.546875 134.253906 196.179688 134.292969 195.847656 134.441406 C 195.574219 134.550781 195.269531 134.722656 195.207031 135.042969 C 195.058594 135.757812 196.054688 136.027344 196.574219 136.125 C 198.332031 136.445312 200.15625 136.558594 201.9375 136.496094 C 202.835938 136.472656 203.734375 136.398438 204.632812 136.285156 C 205.066406 136.238281 205.484375 136.175781 205.914062 136.089844 C 206.269531 136.015625 206.628906 135.917969 206.949219 135.730469 C 207.082031 135.644531 207.21875 135.546875 207.316406 135.425781 C 207.355469 135.351562 207.378906 135.265625 207.34375 135.179688 Z M 177.792969 136.136719 C 178.171875 136.078125 178.566406 136.027344 178.9375 135.917969 C 179.230469 135.820312 179.5625 135.671875 179.722656 135.398438 C 179.882812 135.128906 179.796875 134.808594 179.578125 134.613281 C 179.332031 134.390625 178.984375 134.292969 178.664062 134.230469 C 178.246094 134.144531 177.828125 134.109375 177.410156 134.070312 C 176.953125 134.023438 176.5 133.984375 176.042969 133.960938 C 175.132812 133.910156 174.210938 133.886719 173.289062 133.910156 C 172.390625 133.933594 171.476562 133.996094 170.578125 134.09375 C 169.78125 134.195312 168.96875 134.328125 168.230469 134.660156 C 168.070312 134.734375 167.910156 134.820312 167.75 134.933594 C 167.675781 134.980469 167.652344 135.042969 167.664062 135.117188 C 167.625 135.191406 167.652344 135.277344 167.699219 135.351562 C 167.921875 135.621094 168.253906 135.78125 168.585938 135.890625 C 168.953125 136.015625 169.324219 136.078125 169.707031 136.125 C 170.605469 136.261719 171.503906 136.359375 172.402344 136.410156 C 174.1875 136.484375 175.996094 136.398438 177.792969 136.136719 Z M 193.988281 129.863281 C 194.359375 129.726562 194.691406 129.503906 195.011719 129.269531 C 196.363281 128.285156 197.632812 127.167969 198.777344 125.949219 C 199.34375 125.34375 199.894531 124.71875 200.402344 124.050781 C 200.660156 123.71875 200.917969 123.386719 201.152344 123.042969 C 201.398438 122.699219 201.632812 122.328125 201.753906 121.910156 C 201.804688 121.738281 201.828125 121.554688 201.804688 121.371094 C 201.792969 121.285156 201.753906 121.222656 201.679688 121.183594 C 201.632812 121.125 201.546875 121.097656 201.472656 121.109375 C 200.648438 121.269531 199.894531 121.75 199.230469 122.242188 C 198.53125 122.773438 197.867188 123.339844 197.226562 123.941406 C 195.957031 125.109375 194.777344 126.378906 193.707031 127.746094 C 193.460938 128.066406 193.199219 128.382812 193.027344 128.753906 C 192.894531 129.074219 192.792969 129.457031 193.039062 129.75 C 193.285156 130.023438 193.679688 129.972656 193.988281 129.863281 Z M 181.691406 140.398438 C 181.3125 140.421875 180.96875 140.628906 180.660156 140.839844 C 180.316406 141.085938 179.984375 141.355469 179.648438 141.628906 C 179.316406 141.898438 178.984375 142.179688 178.664062 142.464844 C 178.011719 143.042969 177.386719 143.644531 176.792969 144.273438 C 176.203125 144.902344 175.625 145.542969 175.085938 146.207031 C 174.53125 146.882812 174 147.597656 173.695312 148.421875 C 173.621094 148.605469 173.570312 148.789062 173.535156 148.976562 C 173.519531 149.0625 173.546875 149.136719 173.605469 149.183594 C 173.644531 149.257812 173.71875 149.296875 173.792969 149.308594 C 174.1875 149.355469 174.578125 149.183594 174.925781 149 C 175.292969 148.789062 175.636719 148.53125 175.96875 148.285156 C 176.648438 147.78125 177.300781 147.238281 177.925781 146.6875 C 179.171875 145.566406 180.316406 144.324219 181.335938 142.980469 C 181.582031 142.660156 181.839844 142.339844 182.039062 141.996094 C 182.210938 141.703125 182.40625 141.332031 182.371094 140.976562 C 182.332031 140.617188 182.050781 140.371094 181.691406 140.398438 Z M 200.4375 146.613281 C 199.910156 145.910156 199.34375 145.246094 198.738281 144.605469 C 197.570312 143.339844 196.300781 142.15625 194.9375 141.085938 C 194.617188 140.839844 194.296875 140.582031 193.925781 140.410156 C 193.605469 140.273438 193.226562 140.175781 192.929688 140.421875 C 192.660156 140.65625 192.707031 141.050781 192.820312 141.355469 C 192.953125 141.726562 193.175781 142.058594 193.410156 142.378906 C 194.394531 143.730469 195.515625 145 196.734375 146.144531 C 197.335938 146.710938 197.964844 147.265625 198.628906 147.769531 C 198.960938 148.027344 199.292969 148.285156 199.636719 148.519531 C 199.980469 148.765625 200.351562 149 200.769531 149.121094 C 200.941406 149.171875 201.125 149.195312 201.3125 149.171875 C 201.398438 149.160156 201.460938 149.121094 201.496094 149.050781 C 201.558594 149 201.582031 148.914062 201.570312 148.839844 C 201.410156 148.015625 200.941406 147.277344 200.4375 146.613281 Z M 174.320312 123.425781 C 174.824219 124.101562 175.367188 124.753906 175.921875 125.382812 C 177.042969 126.625 178.285156 127.769531 179.625 128.789062 C 179.945312 129.035156 180.265625 129.296875 180.609375 129.492188 C 180.90625 129.664062 181.273438 129.863281 181.632812 129.824219 C 181.988281 129.789062 182.234375 129.503906 182.210938 129.148438 C 182.1875 128.765625 181.976562 128.421875 181.765625 128.113281 C 181.519531 127.769531 181.25 127.4375 180.980469 127.105469 C 180.707031 126.773438 180.425781 126.441406 180.140625 126.121094 C 179.5625 125.46875 178.960938 124.839844 178.332031 124.25 C 177.707031 123.660156 177.066406 123.082031 176.402344 122.539062 C 175.722656 121.984375 175.011719 121.457031 174.1875 121.148438 C 174 121.074219 173.816406 121.023438 173.632812 120.988281 C 173.546875 120.976562 173.472656 121 173.421875 121.0625 C 173.347656 121.097656 173.3125 121.171875 173.300781 121.246094 C 173.25 121.640625 173.421875 122.035156 173.605469 122.378906 C 173.816406 122.746094 174.074219 123.082031 174.320312 123.425781 Z M 174.320312 123.425781 " fill-opacity="1" fill-rule="nonzero"/><g mask="url(#57ed977d3e)"><g transform="matrix(1, 0, 0, 1, 185, 132)"><g clip-path="url(#1e59b5b640)"><g clip-path="url(#4b4a9ba14f)"><path fill="#667339" d="M 4.273438 4.691406 C 3.992188 5.023438 3.574219 5.296875 3.140625 5.394531 C 2.6875 5.480469 2.230469 5.382812 1.835938 5.160156 C 1.074219 4.71875 0.59375 3.792969 0.667969 2.90625 C 0.742188 2.058594 1.320312 1.296875 2.144531 1.050781 C 2.183594 1.035156 2.21875 1.035156 2.257812 1.050781 C 3.230469 0.605469 4.285156 1.40625 4.667969 2.28125 C 5.011719 3.078125 4.851562 4.015625 4.273438 4.691406 Z M 4.273438 4.691406 " fill-opacity="1" fill-rule="nonzero"/></g></g></g></g><g fill="#262a0f" fill-opacity="1"><g transform="translate(96.801453, 200.750767)"><g><path d="M 11.84375 0.265625 C 9.925781 0.265625 8.203125 -0.046875 6.671875 -0.671875 C 5.148438 -1.296875 3.929688 -2.21875 3.015625 -3.4375 C 2.109375 -4.664062 1.628906 -6.144531 1.578125 -7.875 L 8.40625 -7.875 C 8.5 -6.894531 8.832031 -6.148438 9.40625 -5.640625 C 9.988281 -5.128906 10.738281 -4.875 11.65625 -4.875 C 12.613281 -4.875 13.363281 -5.09375 13.90625 -5.53125 C 14.457031 -5.96875 14.734375 -6.570312 14.734375 -7.34375 C 14.734375 -8 14.515625 -8.535156 14.078125 -8.953125 C 13.640625 -9.378906 13.101562 -9.726562 12.46875 -10 C 11.832031 -10.28125 10.925781 -10.597656 9.75 -10.953125 C 8.050781 -11.472656 6.660156 -11.992188 5.578125 -12.515625 C 4.503906 -13.046875 3.582031 -13.820312 2.8125 -14.84375 C 2.039062 -15.875 1.65625 -17.210938 1.65625 -18.859375 C 1.65625 -21.304688 2.539062 -23.222656 4.3125 -24.609375 C 6.082031 -26.003906 8.394531 -26.703125 11.25 -26.703125 C 14.144531 -26.703125 16.476562 -26.003906 18.25 -24.609375 C 20.03125 -23.222656 20.984375 -21.296875 21.109375 -18.828125 L 14.171875 -18.828125 C 14.117188 -19.671875 13.804688 -20.335938 13.234375 -20.828125 C 12.660156 -21.316406 11.925781 -21.5625 11.03125 -21.5625 C 10.25 -21.5625 9.617188 -21.351562 9.140625 -20.9375 C 8.671875 -20.53125 8.4375 -19.9375 8.4375 -19.15625 C 8.4375 -18.3125 8.835938 -17.648438 9.640625 -17.171875 C 10.441406 -16.703125 11.691406 -16.191406 13.390625 -15.640625 C 15.085938 -15.066406 16.46875 -14.515625 17.53125 -13.984375 C 18.59375 -13.460938 19.507812 -12.703125 20.28125 -11.703125 C 21.0625 -10.703125 21.453125 -9.414062 21.453125 -7.84375 C 21.453125 -6.34375 21.066406 -4.976562 20.296875 -3.75 C 19.535156 -2.519531 18.429688 -1.539062 16.984375 -0.8125 C 15.535156 -0.09375 13.820312 0.265625 11.84375 0.265625 Z M 11.84375 0.265625 "/></g></g></g><g fill="#262a0f" fill-opacity="1"><g transform="translate(119.859359, 200.750767)"><g><path d="M 8.734375 -21.1875 L 8.734375 -15.859375 L 17.328125 -15.859375 L 17.328125 -10.90625 L 8.734375 -10.90625 L 8.734375 -5.140625 L 18.453125 -5.140625 L 18.453125 0 L 2.328125 0 L 2.328125 -26.328125 L 18.453125 -26.328125 L 18.453125 -21.1875 Z M 8.734375 -21.1875 "/></g></g></g><g fill="#262a0f" fill-opacity="1"><g transform="translate(140.142814, 200.750767)"><g><path d="M 15.75 0 L 10.28125 -9.9375 L 8.734375 -9.9375 L 8.734375 0 L 2.328125 0 L 2.328125 -26.328125 L 13.09375 -26.328125 C 15.164062 -26.328125 16.929688 -25.960938 18.390625 -25.234375 C 19.859375 -24.515625 20.953125 -23.519531 21.671875 -22.25 C 22.398438 -20.988281 22.765625 -19.582031 22.765625 -18.03125 C 22.765625 -16.28125 22.269531 -14.71875 21.28125 -13.34375 C 20.289062 -11.96875 18.832031 -10.992188 16.90625 -10.421875 L 22.984375 0 Z M 8.734375 -14.46875 L 12.71875 -14.46875 C 13.882812 -14.46875 14.757812 -14.753906 15.34375 -15.328125 C 15.9375 -15.910156 16.234375 -16.726562 16.234375 -17.78125 C 16.234375 -18.78125 15.9375 -19.566406 15.34375 -20.140625 C 14.757812 -20.710938 13.882812 -21 12.71875 -21 L 8.734375 -21 Z M 8.734375 -14.46875 "/></g></g></g><g fill="#262a0f" fill-opacity="1"><g transform="translate(164.587938, 200.750767)"><g><path d="M 8.734375 -21.1875 L 8.734375 -15.859375 L 17.328125 -15.859375 L 17.328125 -10.90625 L 8.734375 -10.90625 L 8.734375 -5.140625 L 18.453125 -5.140625 L 18.453125 0 L 2.328125 0 L 2.328125 -26.328125 L 18.453125 -26.328125 L 18.453125 -21.1875 Z M 8.734375 -21.1875 "/></g></g></g><g fill="#262a0f" fill-opacity="1"><g transform="translate(184.871394, 200.750767)"><g><path d="M 25.875 0 L 19.46875 0 L 8.734375 -16.234375 L 8.734375 0 L 2.328125 0 L 2.328125 -26.328125 L 8.734375 -26.328125 L 19.46875 -10.015625 L 19.46875 -26.328125 L 25.875 -26.328125 Z M 25.875 0 "/></g></g></g><g fill="#262a0f" fill-opacity="1"><g transform="translate(213.065767, 200.750767)"><g><path d="M 12.1875 -26.328125 C 14.957031 -26.328125 17.378906 -25.773438 19.453125 -24.671875 C 21.535156 -23.578125 23.144531 -22.035156 24.28125 -20.046875 C 25.414062 -18.054688 25.984375 -15.757812 25.984375 -13.15625 C 25.984375 -10.582031 25.414062 -8.296875 24.28125 -6.296875 C 23.144531 -4.296875 21.53125 -2.742188 19.4375 -1.640625 C 17.351562 -0.546875 14.9375 0 12.1875 0 L 2.328125 0 L 2.328125 -26.328125 Z M 11.78125 -5.546875 C 14.195312 -5.546875 16.082031 -6.207031 17.4375 -7.53125 C 18.789062 -8.863281 19.46875 -10.738281 19.46875 -13.15625 C 19.46875 -15.582031 18.789062 -17.46875 17.4375 -18.8125 C 16.082031 -20.164062 14.195312 -20.84375 11.78125 -20.84375 L 8.734375 -20.84375 L 8.734375 -5.546875 Z M 11.78125 -5.546875 "/></g></g></g><g fill="#262a0f" fill-opacity="1"><g transform="translate(240.322832, 200.750767)"><g><path d="M 8.734375 -26.328125 L 8.734375 0 L 2.328125 0 L 2.328125 -26.328125 Z M 8.734375 -26.328125 "/></g></g></g><g fill="#262a0f" fill-opacity="1"><g transform="translate(251.38313, 200.750767)"><g><path d="M 18.265625 -13.5 C 19.785156 -13.175781 21.007812 -12.421875 21.9375 -11.234375 C 22.863281 -10.046875 23.328125 -8.6875 23.328125 -7.15625 C 23.328125 -4.957031 22.554688 -3.210938 21.015625 -1.921875 C 19.484375 -0.640625 17.34375 0 14.59375 0 L 2.328125 0 L 2.328125 -26.328125 L 14.171875 -26.328125 C 16.847656 -26.328125 18.941406 -25.710938 20.453125 -24.484375 C 21.960938 -23.265625 22.71875 -21.601562 22.71875 -19.5 C 22.71875 -17.945312 22.3125 -16.65625 21.5 -15.625 C 20.6875 -14.601562 19.609375 -13.894531 18.265625 -13.5 Z M 8.734375 -15.671875 L 12.9375 -15.671875 C 13.988281 -15.671875 14.796875 -15.898438 15.359375 -16.359375 C 15.921875 -16.828125 16.203125 -17.507812 16.203125 -18.40625 C 16.203125 -19.3125 15.921875 -20 15.359375 -20.46875 C 14.796875 -20.945312 13.988281 -21.1875 12.9375 -21.1875 L 8.734375 -21.1875 Z M 13.46875 -5.171875 C 14.539062 -5.171875 15.367188 -5.414062 15.953125 -5.90625 C 16.546875 -6.394531 16.84375 -7.101562 16.84375 -8.03125 C 16.84375 -8.945312 16.535156 -9.664062 15.921875 -10.1875 C 15.304688 -10.71875 14.460938 -10.984375 13.390625 -10.984375 L 8.734375 -10.984375 L 8.734375 -5.171875 Z M 13.46875 -5.171875 "/></g></g></g><g fill="#262a0f" fill-opacity="1"><g transform="translate(74.772629, 236.243905)"><g><path d="M 11.078125 0.25 C 9.285156 0.25 7.675781 -0.0390625 6.25 -0.625 C 4.820312 -1.21875 3.679688 -2.085938 2.828125 -3.234375 C 1.972656 -4.378906 1.519531 -5.753906 1.46875 -7.359375 L 7.859375 -7.359375 C 7.953125 -6.453125 8.265625 -5.757812 8.796875 -5.28125 C 9.335938 -4.800781 10.039062 -4.5625 10.90625 -4.5625 C 11.800781 -4.5625 12.503906 -4.765625 13.015625 -5.171875 C 13.523438 -5.578125 13.78125 -6.144531 13.78125 -6.875 C 13.78125 -7.476562 13.578125 -7.976562 13.171875 -8.375 C 12.765625 -8.78125 12.257812 -9.109375 11.65625 -9.359375 C 11.0625 -9.617188 10.21875 -9.914062 9.125 -10.25 C 7.53125 -10.738281 6.226562 -11.226562 5.21875 -11.71875 C 4.21875 -12.207031 3.351562 -12.929688 2.625 -13.890625 C 1.90625 -14.847656 1.546875 -16.097656 1.546875 -17.640625 C 1.546875 -19.929688 2.375 -21.722656 4.03125 -23.015625 C 5.695312 -24.316406 7.859375 -24.96875 10.515625 -24.96875 C 13.234375 -24.96875 15.421875 -24.316406 17.078125 -23.015625 C 18.742188 -21.722656 19.632812 -19.921875 19.75 -17.609375 L 13.265625 -17.609375 C 13.210938 -18.398438 12.914062 -19.023438 12.375 -19.484375 C 11.84375 -19.941406 11.15625 -20.171875 10.3125 -20.171875 C 9.582031 -20.171875 8.992188 -19.976562 8.546875 -19.59375 C 8.109375 -19.207031 7.890625 -18.648438 7.890625 -17.921875 C 7.890625 -17.128906 8.265625 -16.507812 9.015625 -16.0625 C 9.765625 -15.625 10.929688 -15.144531 12.515625 -14.625 C 14.109375 -14.09375 15.398438 -13.578125 16.390625 -13.078125 C 17.390625 -12.585938 18.25 -11.875 18.96875 -10.9375 C 19.695312 -10.007812 20.0625 -8.804688 20.0625 -7.328125 C 20.0625 -5.929688 19.703125 -4.65625 18.984375 -3.5 C 18.273438 -2.351562 17.242188 -1.441406 15.890625 -0.765625 C 14.535156 -0.0859375 12.929688 0.25 11.078125 0.25 Z M 11.078125 0.25 "/></g></g></g><g fill="#262a0f" fill-opacity="1"><g transform="translate(96.344951, 236.243905)"><g><path d="M 20.9375 -16.703125 C 20.9375 -15.273438 20.609375 -13.96875 19.953125 -12.78125 C 19.304688 -11.601562 18.300781 -10.648438 16.9375 -9.921875 C 15.582031 -9.203125 13.898438 -8.84375 11.890625 -8.84375 L 8.171875 -8.84375 L 8.171875 0 L 2.171875 0 L 2.171875 -24.625 L 11.890625 -24.625 C 13.859375 -24.625 15.519531 -24.285156 16.875 -23.609375 C 18.226562 -22.929688 19.242188 -21.992188 19.921875 -20.796875 C 20.597656 -19.609375 20.9375 -18.242188 20.9375 -16.703125 Z M 11.4375 -13.609375 C 12.582031 -13.609375 13.4375 -13.875 14 -14.40625 C 14.5625 -14.945312 14.84375 -15.710938 14.84375 -16.703125 C 14.84375 -17.679688 14.5625 -18.4375 14 -18.96875 C 13.4375 -19.507812 12.582031 -19.78125 11.4375 -19.78125 L 8.171875 -19.78125 L 8.171875 -13.609375 Z M 11.4375 -13.609375 "/></g></g></g><g fill="#262a0f" fill-opacity="1"><g transform="translate(118.232955, 236.243905)"><g><path d="M 8.171875 -24.625 L 8.171875 0 L 2.171875 0 L 2.171875 -24.625 Z M 8.171875 -24.625 "/></g></g></g><g fill="#262a0f" fill-opacity="1"><g transform="translate(128.580657, 236.243905)"><g><path d="M 1.15625 -12.34375 C 1.15625 -14.78125 1.679688 -16.953125 2.734375 -18.859375 C 3.785156 -20.765625 5.253906 -22.25 7.140625 -23.3125 C 9.023438 -24.375 11.160156 -24.90625 13.546875 -24.90625 C 16.460938 -24.90625 18.960938 -24.132812 21.046875 -22.59375 C 23.128906 -21.050781 24.519531 -18.945312 25.21875 -16.28125 L 18.625 -16.28125 C 18.132812 -17.300781 17.4375 -18.082031 16.53125 -18.625 C 15.632812 -19.164062 14.613281 -19.4375 13.46875 -19.4375 C 11.625 -19.4375 10.128906 -18.789062 8.984375 -17.5 C 7.835938 -16.21875 7.265625 -14.5 7.265625 -12.34375 C 7.265625 -10.195312 7.835938 -8.476562 8.984375 -7.1875 C 10.128906 -5.90625 11.625 -5.265625 13.46875 -5.265625 C 14.613281 -5.265625 15.632812 -5.53125 16.53125 -6.0625 C 17.4375 -6.601562 18.132812 -7.390625 18.625 -8.421875 L 25.21875 -8.421875 C 24.519531 -5.753906 23.128906 -3.65625 21.046875 -2.125 C 18.960938 -0.59375 16.460938 0.171875 13.546875 0.171875 C 11.160156 0.171875 9.023438 -0.359375 7.140625 -1.421875 C 5.253906 -2.484375 3.785156 -3.960938 2.734375 -5.859375 C 1.679688 -7.753906 1.15625 -9.914062 1.15625 -12.34375 Z M 1.15625 -12.34375 "/></g></g></g><g fill="#262a0f" fill-opacity="1"><g transform="translate(155.309278, 236.243905)"><g><path d="M 8.171875 -19.8125 L 8.171875 -14.84375 L 16.203125 -14.84375 L 16.203125 -10.203125 L 8.171875 -10.203125 L 8.171875 -4.8125 L 17.265625 -4.8125 L 17.265625 0 L 2.171875 0 L 2.171875 -24.625 L 17.265625 -24.625 L 17.265625 -19.8125 Z M 8.171875 -19.8125 "/></g></g></g><g fill="#262a0f" fill-opacity="1"><g transform="translate(174.285906, 236.243905)"><g/></g></g><g fill="#262a0f" fill-opacity="1"><g transform="translate(181.722217, 236.243905)"><g><path d="M 23.5 -24.625 L 23.5 0 L 17.5 0 L 17.5 -10.140625 L 8.171875 -10.140625 L 8.171875 0 L 2.171875 0 L 2.171875 -24.625 L 8.171875 -24.625 L 8.171875 -14.984375 L 17.5 -14.984375 L 17.5 -24.625 Z M 23.5 -24.625 "/></g></g></g><g fill="#262a0f" fill-opacity="1"><g transform="translate(207.363457, 236.243905)"><g><path d="M 13.828125 0.25 C 11.503906 0.25 9.378906 -0.285156 7.453125 -1.359375 C 5.523438 -2.441406 3.992188 -3.945312 2.859375 -5.875 C 1.722656 -7.800781 1.15625 -9.96875 1.15625 -12.375 C 1.15625 -14.789062 1.722656 -16.957031 2.859375 -18.875 C 3.992188 -20.789062 5.523438 -22.285156 7.453125 -23.359375 C 9.378906 -24.429688 11.503906 -24.96875 13.828125 -24.96875 C 16.140625 -24.96875 18.257812 -24.429688 20.1875 -23.359375 C 22.113281 -22.285156 23.628906 -20.789062 24.734375 -18.875 C 25.847656 -16.957031 26.40625 -14.789062 26.40625 -12.375 C 26.40625 -9.96875 25.84375 -7.800781 24.71875 -5.875 C 23.601562 -3.945312 22.085938 -2.441406 20.171875 -1.359375 C 18.253906 -0.285156 16.140625 0.25 13.828125 0.25 Z M 13.828125 -5.234375 C 15.785156 -5.234375 17.351562 -5.882812 18.53125 -7.1875 C 19.71875 -8.5 20.3125 -10.226562 20.3125 -12.375 C 20.3125 -14.550781 19.71875 -16.285156 18.53125 -17.578125 C 17.351562 -18.878906 15.785156 -19.53125 13.828125 -19.53125 C 11.835938 -19.53125 10.25 -18.890625 9.0625 -17.609375 C 7.882812 -16.328125 7.296875 -14.582031 7.296875 -12.375 C 7.296875 -10.207031 7.882812 -8.472656 9.0625 -7.171875 C 10.25 -5.878906 11.835938 -5.234375 13.828125 -5.234375 Z M 13.828125 -5.234375 "/></g></g></g><g fill="#262a0f" fill-opacity="1"><g transform="translate(234.933922, 236.243905)"><g><path d="M 8.0625 -24.625 L 8.0625 -9.890625 C 8.0625 -8.421875 8.425781 -7.285156 9.15625 -6.484375 C 9.882812 -5.691406 10.945312 -5.296875 12.34375 -5.296875 C 13.75 -5.296875 14.828125 -5.691406 15.578125 -6.484375 C 16.328125 -7.285156 16.703125 -8.421875 16.703125 -9.890625 L 16.703125 -24.625 L 22.703125 -24.625 L 22.703125 -9.921875 C 22.703125 -7.722656 22.234375 -5.863281 21.296875 -4.34375 C 20.359375 -2.820312 19.097656 -1.675781 17.515625 -0.90625 C 15.941406 -0.132812 14.1875 0.25 12.25 0.25 C 10.300781 0.25 8.5625 -0.128906 7.03125 -0.890625 C 5.5 -1.648438 4.285156 -2.796875 3.390625 -4.328125 C 2.503906 -5.859375 2.0625 -7.722656 2.0625 -9.921875 L 2.0625 -24.625 Z M 8.0625 -24.625 "/></g></g></g><g fill="#262a0f" fill-opacity="1"><g transform="translate(259.663157, 236.243905)"><g><path d="M 11.078125 0.25 C 9.285156 0.25 7.675781 -0.0390625 6.25 -0.625 C 4.820312 -1.21875 3.679688 -2.085938 2.828125 -3.234375 C 1.972656 -4.378906 1.519531 -5.753906 1.46875 -7.359375 L 7.859375 -7.359375 C 7.953125 -6.453125 8.265625 -5.757812 8.796875 -5.28125 C 9.335938 -4.800781 10.039062 -4.5625 10.90625 -4.5625 C 11.800781 -4.5625 12.503906 -4.765625 13.015625 -5.171875 C 13.523438 -5.578125 13.78125 -6.144531 13.78125 -6.875 C 13.78125 -7.476562 13.578125 -7.976562 13.171875 -8.375 C 12.765625 -8.78125 12.257812 -9.109375 11.65625 -9.359375 C 11.0625 -9.617188 10.21875 -9.914062 9.125 -10.25 C 7.53125 -10.738281 6.226562 -11.226562 5.21875 -11.71875 C 4.21875 -12.207031 3.351562 -12.929688 2.625 -13.890625 C 1.90625 -14.847656 1.546875 -16.097656 1.546875 -17.640625 C 1.546875 -19.929688 2.375 -21.722656 4.03125 -23.015625 C 5.695312 -24.316406 7.859375 -24.96875 10.515625 -24.96875 C 13.234375 -24.96875 15.421875 -24.316406 17.078125 -23.015625 C 18.742188 -21.722656 19.632812 -19.921875 19.75 -17.609375 L 13.265625 -17.609375 C 13.210938 -18.398438 12.914062 -19.023438 12.375 -19.484375 C 11.84375 -19.941406 11.15625 -20.171875 10.3125 -20.171875 C 9.582031 -20.171875 8.992188 -19.976562 8.546875 -19.59375 C 8.109375 -19.207031 7.890625 -18.648438 7.890625 -17.921875 C 7.890625 -17.128906 8.265625 -16.507812 9.015625 -16.0625 C 9.765625 -15.625 10.929688 -15.144531 12.515625 -14.625 C 14.109375 -14.09375 15.398438 -13.578125 16.390625 -13.078125 C 17.390625 -12.585938 18.25 -11.875 18.96875 -10.9375 C 19.695312 -10.007812 20.0625 -8.804688 20.0625 -7.328125 C 20.0625 -5.929688 19.703125 -4.65625 18.984375 -3.5 C 18.273438 -2.351562 17.242188 -1.441406 15.890625 -0.765625 C 14.535156 -0.0859375 12.929688 0.25 11.078125 0.25 Z M 11.078125 0.25 "/></g></g></g><g fill="#262a0f" fill-opacity="1"><g transform="translate(281.235479, 236.243905)"><g><path d="M 8.171875 -19.8125 L 8.171875 -14.84375 L 16.203125 -14.84375 L 16.203125 -10.203125 L 8.171875 -10.203125 L 8.171875 -4.8125 L 17.265625 -4.8125 L 17.265625 0 L 2.171875 0 L 2.171875 -24.625 L 17.265625 -24.625 L 17.265625 -19.8125 Z M 8.171875 -19.8125 "/></g></g></g><path stroke-linecap="butt" transform="matrix(0.75, 0, 0, 0.75, 152.662816, 253.948812)" fill="none" stroke-linejoin="miter" d="M 0.0016619 0.500542 L 92.897501 0.500542 " stroke="#3c4024" stroke-width="1" stroke-opacity="1" stroke-miterlimit="4"/><path stroke-linecap="butt" transform="matrix(0.75, 0.000000000000000918, -0.000000000000000918, 0.75, 152.662816, 270.825568)" fill="none" stroke-linejoin="miter" d="M 0.0016619 0.498201 L 92.897501 0.498201 " stroke="#3c4024" stroke-width="1" stroke-opacity="1" stroke-miterlimit="4"/><g fill="#262a0f" fill-opacity="1"><g transform="translate(159.785538, 265.360517)"><g><path d="M 2.421875 -5.875 L 2.421875 -4.390625 L 4.796875 -4.390625 L 4.796875 -3.03125 L 2.421875 -3.03125 L 2.421875 -1.421875 L 5.109375 -1.421875 L 5.109375 0 L 0.640625 0 L 0.640625 -7.296875 L 5.109375 -7.296875 L 5.109375 -5.875 Z M 2.421875 -5.875 "/></g></g></g><g fill="#262a0f" fill-opacity="1"><g transform="translate(165.408352, 265.360517)"><g><path d="M 3.28125 0.078125 C 2.75 0.078125 2.269531 -0.0078125 1.84375 -0.1875 C 1.425781 -0.363281 1.085938 -0.617188 0.828125 -0.953125 C 0.578125 -1.296875 0.445312 -1.707031 0.4375 -2.1875 L 2.328125 -2.1875 C 2.359375 -1.914062 2.453125 -1.707031 2.609375 -1.5625 C 2.765625 -1.414062 2.972656 -1.34375 3.234375 -1.34375 C 3.492188 -1.34375 3.695312 -1.40625 3.84375 -1.53125 C 4 -1.65625 4.078125 -1.820312 4.078125 -2.03125 C 4.078125 -2.21875 4.015625 -2.367188 3.890625 -2.484375 C 3.773438 -2.597656 3.628906 -2.691406 3.453125 -2.765625 C 3.273438 -2.847656 3.023438 -2.9375 2.703125 -3.03125 C 2.234375 -3.175781 1.847656 -3.320312 1.546875 -3.46875 C 1.242188 -3.613281 0.984375 -3.828125 0.765625 -4.109375 C 0.554688 -4.398438 0.453125 -4.769531 0.453125 -5.21875 C 0.453125 -5.90625 0.695312 -6.4375 1.1875 -6.8125 C 1.6875 -7.195312 2.328125 -7.390625 3.109375 -7.390625 C 3.921875 -7.390625 4.570312 -7.195312 5.0625 -6.8125 C 5.550781 -6.4375 5.8125 -5.90625 5.84375 -5.21875 L 3.921875 -5.21875 C 3.910156 -5.445312 3.820312 -5.628906 3.65625 -5.765625 C 3.5 -5.898438 3.300781 -5.96875 3.0625 -5.96875 C 2.84375 -5.96875 2.664062 -5.910156 2.53125 -5.796875 C 2.40625 -5.679688 2.34375 -5.519531 2.34375 -5.3125 C 2.34375 -5.070312 2.453125 -4.882812 2.671875 -4.75 C 2.890625 -4.625 3.234375 -4.484375 3.703125 -4.328125 C 4.179688 -4.171875 4.566406 -4.019531 4.859375 -3.875 C 5.148438 -3.726562 5.398438 -3.515625 5.609375 -3.234375 C 5.828125 -2.960938 5.9375 -2.609375 5.9375 -2.171875 C 5.9375 -1.753906 5.832031 -1.375 5.625 -1.03125 C 5.414062 -0.695312 5.109375 -0.425781 4.703125 -0.21875 C 4.304688 -0.0195312 3.832031 0.078125 3.28125 0.078125 Z M 3.28125 0.078125 "/></g></g></g><g fill="#262a0f" fill-opacity="1"><g transform="translate(171.800271, 265.360517)"><g><path d="M 5.890625 -7.296875 L 5.890625 -5.875 L 3.953125 -5.875 L 3.953125 0 L 2.1875 0 L 2.1875 -5.875 L 0.25 -5.875 L 0.25 -7.296875 Z M 5.890625 -7.296875 "/></g></g></g><g fill="#262a0f" fill-opacity="1"><g transform="translate(177.942756, 265.360517)"><g><path d="M 3.375 -7.296875 C 4.144531 -7.296875 4.816406 -7.140625 5.390625 -6.828125 C 5.960938 -6.523438 6.40625 -6.097656 6.71875 -5.546875 C 7.039062 -5.003906 7.203125 -4.367188 7.203125 -3.640625 C 7.203125 -2.929688 7.039062 -2.300781 6.71875 -1.75 C 6.40625 -1.195312 5.957031 -0.765625 5.375 -0.453125 C 4.800781 -0.148438 4.132812 0 3.375 0 L 0.640625 0 L 0.640625 -7.296875 Z M 3.265625 -1.53125 C 3.929688 -1.53125 4.453125 -1.710938 4.828125 -2.078125 C 5.203125 -2.453125 5.390625 -2.972656 5.390625 -3.640625 C 5.390625 -4.316406 5.203125 -4.84375 4.828125 -5.21875 C 4.453125 -5.59375 3.929688 -5.78125 3.265625 -5.78125 L 2.421875 -5.78125 L 2.421875 -1.53125 Z M 3.265625 -1.53125 "/></g></g></g><g fill="#262a0f" fill-opacity="1"><g transform="translate(185.498731, 265.360517)"><g/></g></g><g fill="#262a0f" fill-opacity="1"><g transform="translate(187.702128, 265.360517)"><g><path d="M 0.40625 -1.421875 C 0.644531 -1.609375 0.753906 -1.695312 0.734375 -1.6875 C 1.410156 -2.25 1.941406 -2.707031 2.328125 -3.0625 C 2.722656 -3.425781 3.054688 -3.804688 3.328125 -4.203125 C 3.597656 -4.597656 3.734375 -4.976562 3.734375 -5.34375 C 3.734375 -5.632812 3.664062 -5.859375 3.53125 -6.015625 C 3.394531 -6.171875 3.195312 -6.25 2.9375 -6.25 C 2.675781 -6.25 2.46875 -6.148438 2.3125 -5.953125 C 2.164062 -5.753906 2.09375 -5.476562 2.09375 -5.125 L 0.390625 -5.125 C 0.398438 -5.707031 0.523438 -6.195312 0.765625 -6.59375 C 1.003906 -6.988281 1.316406 -7.28125 1.703125 -7.46875 C 2.097656 -7.65625 2.535156 -7.75 3.015625 -7.75 C 3.835938 -7.75 4.457031 -7.535156 4.875 -7.109375 C 5.289062 -6.691406 5.5 -6.144531 5.5 -5.46875 C 5.5 -4.726562 5.242188 -4.039062 4.734375 -3.40625 C 4.234375 -2.769531 3.59375 -2.148438 2.8125 -1.546875 L 5.625 -1.546875 L 5.625 -0.109375 L 0.40625 -0.109375 Z M 0.40625 -1.421875 "/></g></g></g><g fill="#262a0f" fill-opacity="1"><g transform="translate(193.636742, 265.360517)"><g><path d="M 0.46875 -3.890625 C 0.46875 -5.085938 0.695312 -6.023438 1.15625 -6.703125 C 1.613281 -7.390625 2.359375 -7.734375 3.390625 -7.734375 C 4.410156 -7.734375 5.148438 -7.390625 5.609375 -6.703125 C 6.078125 -6.023438 6.3125 -5.085938 6.3125 -3.890625 C 6.3125 -2.691406 6.078125 -1.75 5.609375 -1.0625 C 5.148438 -0.375 4.410156 -0.03125 3.390625 -0.03125 C 2.359375 -0.03125 1.613281 -0.375 1.15625 -1.0625 C 0.695312 -1.75 0.46875 -2.691406 0.46875 -3.890625 Z M 4.5625 -3.890625 C 4.5625 -4.597656 4.484375 -5.140625 4.328125 -5.515625 C 4.179688 -5.890625 3.867188 -6.078125 3.390625 -6.078125 C 2.910156 -6.078125 2.59375 -5.890625 2.4375 -5.515625 C 2.289062 -5.140625 2.21875 -4.597656 2.21875 -3.890625 C 2.21875 -3.421875 2.242188 -3.03125 2.296875 -2.71875 C 2.347656 -2.414062 2.457031 -2.164062 2.625 -1.96875 C 2.800781 -1.78125 3.054688 -1.6875 3.390625 -1.6875 C 3.722656 -1.6875 3.972656 -1.78125 4.140625 -1.96875 C 4.304688 -2.164062 4.414062 -2.414062 4.46875 -2.71875 C 4.53125 -3.03125 4.5625 -3.421875 4.5625 -3.890625 Z M 4.5625 -3.890625 "/></g></g></g><g fill="#262a0f" fill-opacity="1"><g transform="translate(200.413213, 265.360517)"><g><path d="M 0.40625 -1.421875 C 0.644531 -1.609375 0.753906 -1.695312 0.734375 -1.6875 C 1.410156 -2.25 1.941406 -2.707031 2.328125 -3.0625 C 2.722656 -3.425781 3.054688 -3.804688 3.328125 -4.203125 C 3.597656 -4.597656 3.734375 -4.976562 3.734375 -5.34375 C 3.734375 -5.632812 3.664062 -5.859375 3.53125 -6.015625 C 3.394531 -6.171875 3.195312 -6.25 2.9375 -6.25 C 2.675781 -6.25 2.46875 -6.148438 2.3125 -5.953125 C 2.164062 -5.753906 2.09375 -5.476562 2.09375 -5.125 L 0.390625 -5.125 C 0.398438 -5.707031 0.523438 -6.195312 0.765625 -6.59375 C 1.003906 -6.988281 1.316406 -7.28125 1.703125 -7.46875 C 2.097656 -7.65625 2.535156 -7.75 3.015625 -7.75 C 3.835938 -7.75 4.457031 -7.535156 4.875 -7.109375 C 5.289062 -6.691406 5.5 -6.144531 5.5 -5.46875 C 5.5 -4.726562 5.242188 -4.039062 4.734375 -3.40625 C 4.234375 -2.769531 3.59375 -2.148438 2.8125 -1.546875 L 5.625 -1.546875 L 5.625 -0.109375 L 0.40625 -0.109375 Z M 0.40625 -1.421875 "/></g></g></g><g fill="#262a0f" fill-opacity="1"><g transform="translate(206.347826, 265.360517)"><g><path d="M 5.8125 -6.03125 L 2.5625 -6.03125 L 2.5625 -4.609375 C 2.707031 -4.753906 2.898438 -4.875 3.140625 -4.96875 C 3.390625 -5.070312 3.660156 -5.125 3.953125 -5.125 C 4.472656 -5.125 4.90625 -5.003906 5.25 -4.765625 C 5.59375 -4.535156 5.84375 -4.234375 6 -3.859375 C 6.164062 -3.484375 6.25 -3.078125 6.25 -2.640625 C 6.25 -1.828125 6.019531 -1.179688 5.5625 -0.703125 C 5.101562 -0.234375 4.457031 0 3.625 0 C 3.070312 0 2.585938 -0.09375 2.171875 -0.28125 C 1.765625 -0.476562 1.453125 -0.742188 1.234375 -1.078125 C 1.015625 -1.421875 0.894531 -1.8125 0.875 -2.25 L 2.609375 -2.25 C 2.648438 -2.039062 2.75 -1.863281 2.90625 -1.71875 C 3.0625 -1.570312 3.28125 -1.5 3.5625 -1.5 C 3.882812 -1.5 4.125 -1.601562 4.28125 -1.8125 C 4.445312 -2.019531 4.53125 -2.300781 4.53125 -2.65625 C 4.53125 -2.988281 4.445312 -3.242188 4.28125 -3.421875 C 4.113281 -3.609375 3.867188 -3.703125 3.546875 -3.703125 C 3.316406 -3.703125 3.125 -3.644531 2.96875 -3.53125 C 2.820312 -3.414062 2.722656 -3.265625 2.671875 -3.078125 L 0.953125 -3.078125 L 0.953125 -7.59375 L 5.8125 -7.59375 Z M 5.8125 -6.03125 "/></g></g></g></svg>